# xmcd
#
# Track frame offsets: 
#        150
#        21307
#        42522
#        62465
#        87295
#        117275
#        147365
#        166470
#        189367
#        216142
#        245090
#        259977
#        277122
#
# Disc length: 3941 seconds
#
# Revision: 5
# Processed by: cddbd v1.5.2PL0 Copyright (c) Steve Scherf et al.
# Submitted via: ExactAudioCopyFreeDBPlugin 1.0
#
DISCID=c50f630d
DTITLE=Gene Harris &The Phililp Morris Superband - Jazz - Live At Town
DTITLE=Hall, N.Y.C.
DYEAR=1989
DGENRE=Jazz
TTITLE0=The Surrey With The Fringe On Top
TTITLE1=Creme De Menthe
TTITLE2=When It's Sleepy Time Down South
TTITLE3=Love Is Here To Stay
TTITLE4=I'm Just A Lucky So And So
TTITLE5=Serious Grease
TTITLE6=Like A Lover
TTITLE7=Old Man River
TTITLE8=Do You Know What It Means To Miss New Orleans
TTITLE9=Porgy And Bess Medley
TTITLE10=You're My Everything
TTITLE11=There Is No Greater Love
TTITLE12=Things Ain't What They Used To Be
EXTD=Live at Town Hall N. Y. C:
EXTT0=
EXTT1=
EXTT2=
EXTT3=
EXTT4=
EXTT5=
EXTT6=
EXTT7=
EXTT8=
EXTT9=
EXTT10=
EXTT11=
EXTT12=
PLAYORDER=
